:SAMPLES-PER-SECOND 30
:FULLY-SPECIFIED
:DEGREES
175
root  3.6026 26.9259 -15.6699 174.081 5.53465 -179.428
RightUpLeg  -54.9306 -0.316285 9.08553
RightLeg  88.8541 16.5863 -15.1654
RightFoot  -28.3065 -0.32726 -3.19038
RightToes  3.97569e-016 -3.18055e-015 -2.98177e-016
Spine  29.9149 -1.66623 5.12498
Spine1  6.7724 0.473282 -5.37833
HEad  -14.4236 6.38885 -7.69864
LeftShoulder1  -3.88251e-019 9.70628e-020 -3.87848e-018
LeftArm  -28.2581 47.0502 -68.8851
LeftForeArm  -30.2245 -16.1709 -1.41827
LeftHand  -1.46365 -3.3175 20.4246
RightShoulder  8.41774 10.9786 38.9059
RightArm  6.33905 -43.0579 12.3319
RightForeArm  30.8315 5.67403 -3.50544
RightHand  -1.15066 6.99423 -10.8169
LeftUpLeg  -56.8325 1.47963 0.162054
LeftLeg  91.4904 -14.0358 7.47264
LeftFoot  -25.1083 0.0976961 1.56492
LeftToes  4.86531e-011 4.41684e-011 -2.86034e-011
176
root  3.74055 26.6536 -16.5184 174.52 4.20288 -179.601
RightUpLeg  -54.2759 -0.39605 8.89612
RightLeg  90.6687 17.2602 -16.9913
RightFoot  -30.7801 -0.0775024 -1.19072
RightToes  3.97569e-016 -3.18055e-015 -2.98177e-016
Spine  30.4781 -1.96141 5.01006
Spine1  7.54325 0.142415 -4.99525
HEad  -14.7197 5.78728 -7.63594
LeftShoulder1  -3.88251e-019 9.70628e-020 -3.87848e-018
LeftArm  -24.9775 43.8644 -67.4663
LeftForeArm  -27.637 -18.798 -1.34966
LeftHand  -1.9982 -5.22291 22.7002
RightShoulder  8.44781 10.993 39.0176
RightArm  8.79372 -44.51 11.3909
RightForeArm  33.7812 9.034 -3.75504
RightHand  -1.31516 7.90572 -11.48
LeftUpLeg  -56.8387 1.23457 -0.382173
LeftLeg  93.7836 -14.3398 7.77753
LeftFoot  -27.0053 0.163294 1.93045
LeftToes  4.86531e-011 4.41684e-011 -2.86034e-011
177
root  3.85454 26.9709 -17.1646 175.714 2.8181 -179.444
RightUpLeg  -53.2601 -0.809014 8.94436
RightLeg  89.6988 17.1305 -18.2216
RightFoot  -33.2426 0.194831 0.484447
RightToes  3.97569e-016 -3.18055e-015 -2.98177e-016
Spine  29.8773 -2.45214 5.31931
Spine1  8.91066 -0.392885 -4.52774
HEad  -14.4135 5.39757 -7.16584
LeftShoulder1  -3.88251e-019 9.70628e-020 -3.87848e-018
LeftArm  -21.8708 39.817 -66.1237
LeftForeArm  -23.0791 -20.4139 -0.634281
LeftHand  -2.37836 -6.86951 23.246
RightShoulder  8.46113 10.9988 39.0682
RightArm  10.9398 -44.5905 12.0375
RightForeArm  32.909 13.0941 -4.71705
RightHand  -1.58054 7.72395 -13.9606
LeftUpLeg  -56.104 0.607652 -0.28633
LeftLeg  93.1043 -14.2212 7.4288
LeftFoot  -29.4424 0.233404 2.18463
LeftToes  4.86531e-011 4.41684e-011 -2.86034e-011
178
root  3.97124 27.572 -17.741 177.791 1.93922 -179.54
RightUpLeg  -53.0997 -0.686663 8.86383
RightLeg  87.5921 16.5623 -19.0941
RightFoot  -33.0145 0.327156 1.23801
RightToes  3.97569e-016 -3.18055e-015 -2.98177e-016
Spine  28.9785 -2.41538 4.70472
Spine1  9.17357 -0.955884 -3.14524
HEad  -13.8921 5.31625 -6.99481
LeftShoulder1  -3.88251e-019 9.70628e-020 -3.87848e-018
LeftArm  -18.1521 36.4692 -65.1189
LeftForeArm  -20.7557 -22.4986 0.571349
LeftHand  -2.37953 -7.39374 22.2906
RightShoulder  8.36389 10.9552 38.6999
RightArm  15.074 -43.7225 13.1028
RightForeArm  23.084 16.8857 -6.82674
RightHand  -1.69669 7.03423 -15.7449
LeftUpLeg  -55.6838 0.0503201 -0.279398
LeftLeg  90.8504 -13.9092 6.79384
LeftFoot  -29.9125 0.224135 2.06178
LeftToes  4.86531e-011 4.41684e-011 -2.86034e-011
179
root  4.06796 28.2943 -18.2112 179.93 1.67166 -179.987
RightUpLeg  -52.9546 -0.353003 8.47448
RightLeg  85.1903 15.8005 -19.3017
RightFoot  -31.4244 0.315792 1.30962
RightToes  3.97569e-016 -3.18055e-015 -2.98177e-016
Spine  28.7339 -2.0434 3.70285
Spine1  8.39743 -1.23813 -1.82239
HEad  -13.9964 5.22525 -6.91597
LeftShoulder1  -3.88251e-019 9.70628e-020 -3.87848e-018
LeftArm  -13.4829 33.0267 -64.1492
LeftForeArm  -21.3174 -24.437 1.74785
LeftHand  -2.30739 -7.5786 21.3387
RightShoulder  8.22151 10.8923 38.154
RightArm  19.6461 -42.1604 14.4075
RightForeArm  10.2427 20.2928 -10.2185
RightHand  -1.77314 6.8273 -16.7089
LeftUpLeg  -55.3798 -0.0757475 -0.76184
LeftLeg  88.1301 -13.619 6.59915
LeftFoot  -28.6276 0.183318 1.91256
LeftToes  4.86531e-011 4.41684e-011 -2.86034e-011
180
root  4.12625 29.3352 -18.5476 -177.947 1.65445 179.563
RightUpLeg  -51.9706 -0.326183 7.96143
RightLeg  81.2032 14.5188 -18.8111
RightFoot  -30.6096 0.265555 1.06697
RightToes  3.97569e-016 -3.18055e-015 -2.98177e-016
Spine  28.6883 -1.81586 3.4587
Spine1  7.39251 -1.2425 -1.41153
HEad  -14.3164 4.91167 -6.62679
LeftShoulder1  -3.88251e-019 9.70628e-020 -3.87848e-018
LeftArm  -9.29392 29.1715 -63.3701
LeftForeArm  -22.0319 -25.6547 2.59263
LeftHand  -2.36889 -8.13949 20.9837
RightShoulder  8.0772 10.8331 37.5842
RightArm  20.1493 -40.1392 16.0363
RightForeArm  4.07944 23.508 -12.9726
RightHand  -1.85991 6.68116 -17.7164
LeftUpLeg  -54.4098 -0.123326 -1.34737
LeftLeg  83.8074 -13.179 6.73974
LeftFoot  -27.4021 0.163228 1.89107
LeftToes  4.86531e-011 4.41684e-011 -2.86034e-011
181
root  4.16031 30.7037 -18.8317 -175.514 1.65776 179.223
RightUpLeg  -50.486 -0.384104 7.448
RightLeg  75.2723 12.7336 -17.8802
RightFoot  -29.5276 0.161438 0.429926
RightToes  3.97569e-016 -3.18055e-015 -2.98177e-016
Spine  28.3791 -1.69995 3.73609
Spine1  6.20163 -1.15809 -1.42752
HEad  -14.283 4.42864 -6.35452
LeftShoulder1  -3.88251e-019 9.70628e-020 -3.87848e-018
LeftArm  -6.09556 25.9398 -63.1234
LeftForeArm  -21.8386 -26.9079 3.67505
LeftHand  -2.44657 -8.71995 20.7623
RightShoulder  7.86362 10.7439 36.7327
RightArm  18.5884 -38.09 17.5157
RightForeArm  2.89234 26.8982 -14.5685
RightHand  -1.95187 6.25885 -19.2179
LeftUpLeg  -52.7307 -0.6124 -1.70551
LeftLeg  77.2898 -12.4932 6.78098
LeftFoot  -25.9896 0.137505 1.83668
LeftToes  4.86531e-011 4.41684e-011 -2.86034e-011
182
root  4.18244 32.1295 -19.09 -173.04 1.77702 178.933
RightUpLeg  -48.9507 -0.195172 6.96039
RightLeg  68.7156 10.9516 -16.7043
RightFoot  -26.7537 0.02391 -0.557144
RightToes  3.97569e-016 -3.18055e-015 -2.98177e-016
Spine  28.1681 -1.47246 3.88323
Spine1  4.70877 -1.01364 -1.27444
HEad  -14.2628 3.91298 -6.26981
LeftShoulder1  -3.88251e-019 9.70628e-020 -3.87848e-018
LeftArm  -4.12892 23.8891 -63.2655
LeftForeArm  -21.1246 -29.0621 5.1386
LeftHand  -2.44484 -8.92097 20.459
RightShoulder  7.57882 10.6178 35.5935
RightArm  18.7148 -36.1338 18.477
RightForeArm  0.0855514 30.367 -16.3844
RightHand  -2.09131 6.01921 -20.9604
LeftUpLeg  -50.8669 -1.45924 -1.90704
LeftLeg  69.9295 -11.6478 6.90297
LeftFoot  -23.2535 0.0902716 1.72256
LeftToes  4.86531e-011 4.41684e-011 -2.86034e-011
183
root  4.18992 33.4961 -19.2927 -170.819 2.09798 178.731
RightUpLeg  -47.2503 0.0269677 6.57785
RightLeg  62.1099 9.45137 -15.2076
RightFoot  -23.2587 -0.0661715 -1.61446
RightToes  3.97569e-016 -3.18055e-015 -2.98177e-016
Spine  28.2052 -1.19876 4.01493
Spine1  3.1783 -0.798157 -1.11273
HEad  -14.5168 3.54154 -6.14186
LeftShoulder1  -3.88251e-019 9.70628e-020 -3.87848e-018
LeftArm  -4.0796 22.707 -63.3702
LeftForeArm  -19.8138 -32.1635 6.13679
LeftHand  -2.42575 -9.00104 20.1937
RightShoulder  7.3402 10.5177 34.608
RightArm  19.2552 -34.1074 19.0151
RightForeArm  -3.88706 33.826 -18.3032
RightHand  -2.3159 6.29336 -22.6254
LeftUpLeg  -49.0322 -2.24286 -2.04619
LeftLeg  62.7166 -10.6012 7.30742
LeftFoot  -19.65 0.037803 1.58269
LeftToes  4.86531e-011 4.41684e-011 -2.86034e-011
184
root  4.18499 34.8441 -19.4957 -168.629 2.58994 178.618
RightUpLeg  -45.2301 -0.0227746 6.32635
RightLeg  54.9044 8.28698 -13.2012
RightFoot  -20.2427 -0.0974918 -2.64776
RightToes  3.97569e-016 -3.18055e-015 -2.98177e-016
Spine  28.0973 -0.969406 4.31744
Spine1  1.66967 -0.56522 -1.13816
HEad  -14.5666 3.4399 -5.88288
LeftShoulder1  -3.88251e-019 9.70628e-020 -3.87848e-018
LeftArm  -4.11832 22.2849 -63.368
LeftForeArm  -19.8256 -35.5977 7.10142
LeftHand  -2.37974 -9.13519 19.6415
RightShoulder  7.21038 10.4886 34.0089
RightArm  19.4903 -32.2963 19.2568
RightForeArm  -7.53356 36.9262 -20.1811
RightHand  -2.54472 6.70093 -23.9914
LeftUpLeg  -47.0052 -2.92138 -2.06425
LeftLeg  55.1878 -9.30401 7.65176
LeftFoot  -16.2086 -0.00889503 1.25295
LeftToes  4.86531e-011 4.41684e-011 -2.86034e-011
185
root  4.17978 36.0987 -19.7568 -166.476 3.24496 178.48
RightUpLeg  -42.984 -0.266714 6.11375
RightLeg  47.2859 7.63724 -10.8637
RightFoot  -17.2555 -0.0763826 -3.73258
RightToes  3.97569e-016 -3.18055e-015 -2.98177e-016
Spine  27.7264 -0.700658 4.47268
Spine1  0.149392 -0.307602 -1.18429
HEad  -14.2238 3.53113 -5.73607
LeftShoulder1  -3.88251e-019 9.70628e-020 -3.87848e-018
LeftArm  -3.94038 22.6058 -63.3496
LeftForeArm  -20.681 -38.8974 8.09036
LeftHand  -2.21539 -9.14045 18.3173
RightShoulder  7.13229 10.4905 33.6041
RightArm  19.6505 -31.1923 19.1516
RightForeArm  -11.2873 39.6997 -21.9954
RightHand  -2.71516 6.91131 -25.1218
LeftUpLeg  -44.5786 -3.70772 -1.94945
LeftLeg  47.1745 -7.82417 7.68226
LeftFoot  -12.9231 -0.0359064 0.771259
LeftToes  4.86531e-011 4.41684e-011 -2.86034e-011
186
root  4.18406 37.1371 -20.0484 -164.946 4.01463 178.298
RightUpLeg  -40.416 -0.563288 5.92077
RightLeg  40.2427 7.56207 -8.68626
RightFoot  -13.9652 0.0114495 -4.75774
RightToes  3.97569e-016 -3.18055e-015 -2.98177e-016
Spine  27.2691 -0.417799 4.30814
Spine1  -0.800407 -0.0130307 -1.19827
HEad  -13.9596 3.6549 -5.76052
LeftShoulder1  -3.88251e-019 9.70628e-020 -3.87848e-018
LeftArm  -3.56831 23.0344 -63.2787
LeftForeArm  -21.3885 -41.5156 8.94745
LeftHand  -1.96788 -9.04447 16.4446
RightShoulder  7.06269 10.4727 33.2847
RightArm  19.6914 -30.7935 19.0482
RightForeArm  -15.4819 41.9396 -23.5325
RightHand  -2.94003 7.18137 -26.5551
LeftUpLeg  -41.6366 -4.50009 -1.84188
LeftLeg  39.5353 -6.25482 7.50877
LeftFoot  -9.69241 -0.0447662 0.593275
LeftToes  4.86531e-011 4.41684e-011 -2.86034e-011
187
root  4.20765 37.944 -20.3685 -164.448 4.70468 178.094
RightUpLeg  -37.2408 -1.01164 5.76051
RightLeg  34.2241 7.84648 -6.93611
RightFoot  -11.3025 0.124631 -5.51973
RightToes  3.97569e-016 -3.18055e-015 -2.98177e-016
Spine  26.6008 -0.306893 3.98504
Spine1  -0.537673 0.171685 -1.27784
HEad  -13.9371 3.7975 -5.72927
LeftShoulder1  -3.88251e-019 9.70628e-020 -3.87848e-018
LeftArm  -2.96344 22.9534 -63.0155
LeftForeArm  -21.1756 -42.848 9.44155
LeftHand  -1.77222 -9.14833 14.7571
RightShoulder  7.03083 10.4421 33.1862
RightArm  19.2758 -30.8756 19.5049
RightForeArm  -18.3338 42.8324 -24.1077
RightHand  -3.3114 7.68235 -28.6747
LeftUpLeg  -38.0781 -5.03806 -1.92953
LeftLeg  32.9318 -4.76527 7.17726
LeftFoot  -7.13559 -0.0668997 0.892604
LeftToes  4.86531e-011 4.41684e-011 -2.86034e-011
188
root  4.26274 38.5418 -20.7778 -164.823 5.14642 177.769
RightUpLeg  -33.5801 -1.63381 5.48044
RightLeg  29.2956 8.23904 -5.64961
RightFoot  -9.91688 0.201125 -6.01001
RightToes  3.97569e-016 -3.18055e-015 -2.98177e-016
Spine  25.5006 -0.401997 3.46406
Spine1  0.563088 0.0877882 -1.28189
HEad  -13.7988 4.0371 -5.61026
LeftShoulder1  -3.88251e-019 9.70628e-020 -3.87848e-018
LeftArm  -2.15609 22.7178 -62.6309
LeftForeArm  -19.7138 -42.7932 9.49724
LeftHand  -1.6834 -9.43136 13.7705
RightShoulder  7.06573 10.4375 33.3761
RightArm  18.8726 -31.6527 20.2429
RightForeArm  -18.8627 41.9349 -23.3189
RightHand  -3.64305 8.00184 -30.7156
LeftUpLeg  -34.0142 -5.4425 -2.27985
LeftLeg  27.3833 -3.52665 6.67735
LeftFoot  -5.54974 -0.103824 1.29529
LeftToes  4.86531e-011 4.41684e-011 -2.86034e-011
189
root  4.35022 38.949 -21.2912 -165.762 5.34752 177.289
RightUpLeg  -29.9153 -2.09061 4.94931
RightLeg  25.7589 8.42543 -4.90709
RightFoot  -9.3335 0.240343 -6.31443
RightToes  3.97569e-016 -3.18055e-015 -2.98177e-016
Spine  24.1341 -0.565606 2.61307
Spine1  1.51531 -0.212603 -1.03296
HEad  -13.4642 4.37604 -5.63675
LeftShoulder1  -3.88251e-019 9.70628e-020 -3.87848e-018
LeftArm  -1.26688 23.1275 -62.3862
LeftForeArm  -17.4142 -41.8154 9.26084
LeftHand  -1.65016 -9.45468 13.4865
RightShoulder  7.16679 10.4726 33.8198
RightArm  19.6909 -33.5297 20.0792
RightForeArm  -19.0457 39.855 -21.6716
RightHand  -3.62208 7.77112 -31.0426
LeftUpLeg  -29.7727 -6.00635 -2.79505
LeftLeg  22.8688 -2.51026 6.14353
LeftFoot  -4.51233 -0.133808 1.61766
LeftToes  4.86531e-011 4.41684e-011 -2.86034e-011
